<svg xmlns="http://www.w3.org/2000/svg" xmlns:xlink="http://www.w3.org/1999/xlink" width="1921" height="1083.989" viewBox="0 0 1921 1083.989">
  <defs>
    <linearGradient id="linear-gradient" x1="0.5" x2="0.5" y2="1" gradientUnits="objectBoundingBox">
      <stop offset="0" stop-color="#08459e"/>
      <stop offset="0.204" stop-color="#08459e"/>
      <stop offset="0.827" stop-color="#05285b"/>
      <stop offset="0.95" stop-color="#042452"/>
      <stop offset="1" stop-color="#04234f"/>
    </linearGradient>
  </defs>
  <g id="background" transform="translate(0.5 3.502)">
    <path id="Path_2" data-name="Path 2" d="M1234,1180.244s218.781-90.043,529.43-78.737c297.864,10.84,855.323,155.367,990.244,68.645,275.91-177.345,396.764-575.29,396.764-575.29V123.383L1234,114.732V1180.244Z" transform="translate(-1234 -117.732)" fill="#f1f1f1" stroke="#707070" stroke-width="1"/>
    <path id="Path_3" data-name="Path 3" d="M1809.624,118s61.529,147.719,154.155,290.46c87.734,135.2,226.529,288.116,358.534,313.873,33.05,6.449,117.714,9.435,149.389,0,89.62-11.271,114.922-30.721,169.51-23.307,62.342,8.467,75,50.366,86.578,96.245,19.591,77.612-128.943,196.3-101.974,305.419,19.142,77.455,170.621,116.881,282.551,70.58,269.06-111.3,312.514-284.593,312.514-284.593V118Z" transform="translate(-1358.894 -121)" fill="#cfddf1"/>
    <path id="Path_1" data-name="Path 1" d="M1750.3,118s305.665,504.141,575.142,564.744c2.146.483-2.442-.477,0,0,33.05,6.45,85.022,14.464,141.829,13.356,94.68-10.916,86.379-.865,140.967,6.55,62.342,8.468,74.624,47.868,86.2,93.752,19.591,77.62-95.6,189.758-68.629,298.889,19.142,77.463,102.417,120.029,214.346,73.723,269.06-111.312,380.718-282.257,380.718-282.257V118Z" transform="translate(-1300.878 -118)" stroke="#707070" stroke-width="1" fill="url(#linear-gradient)"/>
  </g>
</svg>
